# xmcd CD database file
#
# Track frame offsets:
#	150
#	30637
#	49672
#	69005
#	93230
#	115130
#	134807
#	158422
#
# Disc length: 2374 seconds
#
# Revision: 0
# Processed by: cddbd v1.4PL0 Copyright (c) Steve Scherf et al.
# Submitted via: CDex 1.50
#
DISCID=5d094408
DTITLE=NAT ADDERLEY - LITTLE BIG HORN!
DYEAR=1998
DGENRE=Jazz
TTITLE0=EL CHICO
TTITLE1=FOO FOO
TTITLE2=LONELINESS
TTITLE3=LITTLE BIG HORN
TTITLE4=HALF-TIME
TTITLE5=BROADWAY LADY
TTITLE6=ROSES FOR YOUR PILLOW
TTITLE7=HUSTLE WITH RUSSELL
EXTD=YEAR: 1998
EXTT0=
EXTT1=
EXTT2=
EXTT3=
EXTT4=
EXTT5=
EXTT6=
EXTT7=
PLAYORDER=
